<svg xmlns="http://www.w3.org/2000/svg" width="80" height="26" fill="none"><path fill="#28D7A2" fill-rule="evenodd" d="M.507999 23.5081c-.677332-.7224-.677332-1.8938 0-2.6162l8.672091-9.25c.67733-.7225 1.77551-.7225 2.45281 0l8.6721 9.25c.6773.7224.6773 1.8938 0 2.6162-.6773.7225-1.7755.7225-2.4528 0l-7.4457-7.9418-7.44566 7.9418c-.67734.7225-1.77551.7225-2.452841 0Zm0-11.1c-.677332-.7224-.677332-1.8938 0-2.61625L9.18009.541853c.67733-.722471 1.77551-.722471 2.45281 0L20.305 9.79185c.6773.72245.6773 1.89385 0 2.61625-.6773.7225-1.7755.7225-2.4528 0l-7.4457-7.94181-7.44566 7.94181c-.67734.7225-1.77551.7225-2.452841 0Z" clip-rule="evenodd"/><rect width="3.90244" height="3.9" x="8.47693" y="20.164" fill="#28D7A2" rx="1.95"/><path fill="#FAFAFA" d="M34.8439 18.7791c-1.3472 0-2.3965-.4607-3.1478-1.382-.7513-.9277-1.127-2.2163-1.127-3.8656 0-1.0437.1522-1.9489.4566-2.7156.3044-.7667.7546-1.35943 1.3505-1.7782.5959-.42522 1.3245-.63783 2.186-.63783.3627 0 .6995.04187 1.0104.12563.3174.07731.6056.18684.8647.32858.2591.14174.4858.30603.6801.49287.1943.18684.353.38656.476.59917V4.22498h2.8467V18.5858h-2.0597l-.3206-2.0488c-.0907.2771-.217.5477-.3789.8118-.162.2642-.3692.5058-.6218.7248-.2526.2126-.5635.3834-.9327.5122-.3627.1289-.7902.1933-1.2825.1933Zm.6218-2.0295c.7125 0 1.2436-.248 1.5934-.7441.3562-.4961.5343-1.3336.5343-2.5127-.0064-.6829-.0874-1.2498-.2429-1.7008-.1554-.451-.3886-.7861-.6995-1.0051-.3044-.2255-.693-.3382-1.1658-.3382-.6154 0-1.127.2351-1.5351.7054-.4081.4639-.6121 1.2435-.6121 2.3387 0 1.1146.1911 1.9361.5732 2.4644.3822.5283.9003.7924 1.5545.7924Zm8.588 5.0254c-.6866 0-1.1724-.058-1.4574-.174-.2785-.1095-.4177-.1643-.4177-.1643v-1.7975l.991.0387c.4339.0257.7837.0032 1.0492-.0677.2656-.0644.4664-.1514.6024-.2609.1425-.1095.2429-.2255.3012-.3479.0583-.116.1004-.2094.1263-.2803l.1846-.5508-3.9057-9.57715h2.8078l2.4095 6.51355 2.4386-6.51355h2.7689L47.8816 18.6438c-.3498.8504-.719 1.5012-1.1076 1.9522-.3886.4509-.8096.7602-1.263.9277-.4469.1675-.9327.2513-1.4573.2513Zm8.9771-3.1892V8.59315h2.7301v2.36775c.1619-.509.3886-.9536.6801-1.33369.2979-.38657.6574-.68616 1.0784-.89877.421-.21905.8971-.32857 1.4282-.32857.0907 0 .1749.00644.2526.01932.0842.00645.1457.01933.1846.03866v2.68665c-.0583-.0258-.1295-.0419-.2137-.0484-.0778-.0064-.149-.0128-.2138-.0193-.557-.0451-1.0331-.029-1.4282.0483-.3951.0774-.7157.2094-.9618.3963-.2461.1868-.4243.4155-.5344.6861-.1101.2706-.1651.5734-.1651.9084v5.4699h-2.837Zm17.2111 0h-2.8272l-2.7106-4.3102-1.3311 1.411v2.8992h-2.8369V4.22498h2.8369V12.739l3.6919-4.14585h3.0507l-3.653 3.98165 3.7793 6.011Zm3.0155-4.3488c-.0065.509.0745.9535.2429 1.3336.1684.3737.4113.6636.7286.8698.3239.1997.7125.2996 1.1659.2996.4858 0 .91-.1031 1.2727-.3093.3692-.2061.6251-.5444.7676-1.0147h2.5552c-.1101.7087-.3951 1.3143-.855 1.8168-.4534.5026-1.0039.8859-1.6516 1.1501-.6477.2641-1.3214.3962-2.0209.3962-.991 0-1.8654-.2062-2.6232-.6185-.7513-.4188-1.3375-1.0083-1.7585-1.7685-.421-.7603-.6315-1.6558-.6315-2.6866 0-.9987.1911-1.8974.5732-2.6963.3822-.8054.9359-1.43998 1.6614-1.90386.7319-.47031 1.6095-.70547 2.6329-.70547 1.0234 0 1.8816.21583 2.5746.64749.6995.42522 1.2242 1.02114 1.5739 1.78784.3563.7603.5344 1.6397.5344 2.6383v.7635h-6.7426Zm-.0097-1.6816h4.0999c0-.3994-.0744-.7667-.2234-1.1017-.149-.335-.3757-.5992-.6801-.7924-.298-.1933-.6736-.29-1.127-.29-.4405 0-.8161.1063-1.127.319-.3044.2061-.5376.4767-.6995.8117-.162.3351-.2429.6862-.2429 1.0534Z"/></svg>